<?xml version="1.0" standalone="no"?>
<!DOCTYPE svg PUBLIC "-//W3C//DTD SVG 20010904//EN"
 "http://www.w3.org/TR/2001/REC-SVG-20010904/DTD/svg10.dtd">
<svg version="1.0" xmlns="http://www.w3.org/2000/svg"
 width="512.000000pt" height="512.000000pt" viewBox="0 0 512.000000 512.000000"
 preserveAspectRatio="xMidYMid meet">
<metadata>
Created by potrace 1.11, written by Peter Selinger 2001-2013
</metadata>
<g transform="translate(0.000000,512.000000) scale(0.100000,-0.100000)"
fill="#000000" stroke="none">
<path d="M2320 5079 c-595 -45 -1159 -306 -1585 -733 -212 -213 -352 -409
-480 -671 -105 -215 -164 -387 -209 -615 -35 -177 -46 -293 -46 -500 0 -323
41 -562 147 -865 42 -120 163 -371 229 -475 207 -326 508 -623 824 -816 795
-484 1781 -493 2590 -25 80 46 234 146 263 171 5 4 -21 55 -57 114 -36 58 -66
111 -66 117 0 8 -25 9 -87 4 -82 -6 -93 -10 -155 -51 -38 -24 -68 -42 -68 -39
0 4 11 23 25 43 14 20 21 39 17 43 -4 3 -41 12 -82 19 -41 7 -106 21 -145 31
l-70 18 -105 -111 c-129 -138 -298 -274 -316 -256 -2 2 12 56 31 118 18 63 45
167 59 230 15 63 28 123 30 132 3 12 -15 31 -58 62 -34 24 -93 72 -131 107
l-70 63 -17 -100 c-54 -298 -132 -598 -173 -661 -10 -15 -25 -23 -44 -23 -25
0 -31 7 -51 53 -37 86 -69 184 -105 327 -40 159 -89 429 -80 439 4 3 98 6 209
6 l203 0 -73 97 c-40 53 -86 122 -101 153 l-28 58 -136 -7 -136 -6 -12 117
c-20 205 -31 393 -31 560 l0 162 107 3 106 3 13 55 c14 61 71 216 104 279 l20
41 -175 0 -175 0 0 163 c0 166 10 348 31 564 l12 122 31 -7 c35 -8 375 -9 451
-2 l50 4 12 -144 c7 -80 15 -189 19 -243 l6 -97 36 30 c79 66 159 123 198 141
l41 19 -5 77 c-2 43 -10 121 -16 174 l-12 97 105 27 c110 29 250 79 320 114
22 12 44 21 49 21 10 0 66 -163 98 -280 9 -36 20 -68 23 -72 8 -9 282 -31 289
-23 13 13 -39 197 -112 394 l-47 124 23 16 c12 9 59 42 104 73 l82 57 79 -82
c202 -211 361 -479 454 -763 31 -95 35 -102 114 -184 180 -187 277 -342 346
-552 16 -51 32 -95 36 -98 11 -10 -6 397 -22 500 -47 302 -127 551 -261 809
-469 901 -1422 1428 -2444 1350z m319 -397 c28 -56 86 -241 119 -382 40 -167
77 -378 69 -386 -23 -24 -420 -24 -443 -1 -4 4 -1 57 6 119 25 239 87 509 143
632 23 50 29 56 56 56 25 0 34 -7 50 -38z m431 -78 c30 -23 91 -79 136 -125
108 -113 164 -188 262 -350 l22 -36 -87 -33 c-125 -47 -254 -90 -273 -90 -12
0 -20 28 -38 138 -22 136 -75 370 -112 491 -11 35 -20 67 -20 72 0 11 36 -11
110 -67z m-862 4 c-54 -173 -106 -396 -129 -550 -9 -68 -16 -88 -28 -88 -25 0
-157 43 -264 85 l-97 38 22 36 c148 244 287 399 446 498 37 23 68 42 68 42 1
1 -7 -27 -18 -61z m-709 -263 c-39 -58 -74 -105 -78 -105 -12 0 -91 59 -91 68
0 7 219 141 232 142 4 0 -25 -47 -63 -105z m2174 69 c61 -31 177 -111 177
-123 0 -4 -22 -22 -50 -39 l-50 -31 -36 67 c-21 37 -53 86 -71 110 -19 23 -32
42 -28 42 3 0 29 -12 58 -26z m-2379 -455 c5 -4 -7 -47 -27 -96 -110 -274
-187 -642 -204 -970 l-6 -123 -299 0 -300 0 6 28 c3 15 8 50 12 77 3 28 17 99
30 159 87 386 261 714 531 1007 l54 58 97 -66 c53 -37 101 -70 106 -74z m352
-178 c38 -16 140 -53 227 -81 l159 -52 -6 -42 c-11 -77 -35 -450 -42 -643 l-7
-193 -321 0 -322 0 3 43 c16 227 52 450 107 648 36 130 116 349 127 349 4 0
38 -13 75 -29z m-584 -1512 c19 -335 90 -676 196 -953 31 -81 42 -121 34 -124
-6 -2 -52 -32 -102 -68 -50 -35 -93 -64 -95 -64 -9 0 -119 122 -175 195 -238
305 -388 654 -446 1030 -7 50 -14 93 -14 98 0 4 134 6 298 5 l297 -3 7 -116z
m918 24 c0 -103 18 -416 35 -628 8 -93 13 -171 11 -172 -2 -2 -43 -14 -92 -28
-126 -33 -177 -51 -273 -96 -46 -21 -87 -39 -91 -39 -18 0 -103 258 -145 440
-38 168 -85 478 -85 573 l0 27 320 0 320 0 0 -77z m88 -1134 c21 -179 86 -482
132 -613 11 -33 18 -61 16 -63 -2 -2 -39 23 -83 56 -142 107 -301 288 -411
469 l-32 52 22 9 c13 5 48 19 78 31 80 33 253 89 265 86 6 -1 11 -13 13 -27z
m-625 -251 c8 -13 40 -62 70 -111 l57 -87 -63 31 c-70 36 -177 108 -177 120 0
8 80 68 92 69 4 0 14 -10 21 -22z"/>
<path d="M3720 3262 c-494 -29 -895 -364 -1027 -859 -24 -88 -26 -116 -27
-278 0 -163 3 -189 26 -276 56 -208 149 -372 293 -514 233 -232 536 -347 875
-332 564 25 1009 462 1059 1041 51 583 -345 1100 -919 1200 -88 15 -202 23
-280 18z m233 -197 c472 -82 807 -494 784 -965 -17 -359 -208 -649 -534 -814
-287 -145 -637 -118 -919 69 -102 69 -234 207 -298 313 -223 373 -156 839 165
1148 83 79 136 117 225 162 181 91 381 121 577 87z"/>
<path d="M4405 1084 c-126 -74 -231 -138 -233 -143 -2 -6 355 -636 374 -660 3
-3 472 264 486 278 9 9 -368 656 -384 658 -7 1 -116 -59 -243 -133z"/>
<path d="M4943 395 c-68 -40 -126 -75 -130 -77 -5 -1 -57 -32 -116 -67 -107
-63 -108 -64 -90 -84 74 -86 127 -112 228 -112 93 0 136 18 203 85 54 54 81
126 77 206 -2 60 -21 115 -40 120 -5 2 -65 -30 -132 -71z"/>
</g>
</svg>
